# xmcd CD database file
#
# Track frame offsets:
#	150
#	14726
#	32378
#	47746
#	63375
#	77893
#	91146
#	106475
#	122786
#	137011
#	152018
#	165816
#	182841
#	196392
#
# Disc length: 2836 seconds
#
# Revision: 1
# Processed by: cddbd v1.5.2PL0 Copyright (c) Steve Scherf et al.
# Submitted via: CDex 1.70beta2
#
DISCID=b00b120e
DTITLE=Judith and Mel - Die schönsten Liebeslieder, Folge 1
DYEAR=2000
DGENRE=Vocal
TTITLE0=Die Liebe bleibt Sieger
TTITLE1=Liebe für die Ewigkeit
TTITLE2=Was ich mit dir jetzt erlebe
TTITLE3=Liebe ist kein Spiel
TTITLE4=Ich hör deinen Herzschlag
TTITLE5=Ich will
TTITLE6=Die Liebe - Die Liebe
TTITLE7=Die zehn Gebote der Liebe
TTITLE8=Alles für dich
TTITLE9=Die Augen sind der Spiegel der Seele
TTITLE10=Der Zauber einer Nacht
TTITLE11=Gefühle wie Feuer und Eis
TTITLE12=Kein einziges Wort
TTITLE13=Die Liebe auf den ersten Blick
EXTD=YEAR: 2000
EXTT0=
EXTT1=
EXTT2=
EXTT3=
EXTT4=
EXTT5=
EXTT6=
EXTT7=
EXTT8=
EXTT9=
EXTT10=
EXTT11=
EXTT12=
EXTT13=
PLAYORDER=
